# xmcd CD database file
#
# Track frame offsets:
#	150
#	26494
#	47321
#	71699
#	111776
#	144451
#	166461
#	184875
#	197426
#	221996
#	229777
#
# Disc length: 3609 seconds
#
# Revision: 0
# Processed by: cddbd v1.5.2PL0 Copyright (c) Steve Scherf et al.
# Submitted via: CDex 1.51
#
DISCID=9a0e170b
DTITLE=Spencer Bohren - Live At The Tube Temple
DYEAR=2007
DGENRE=Blues
TTITLE0=Night Is Falling
TTITLE1=Morning Blues
TTITLE2=Weary Blues
TTITLE3=Wade In The Water
TTITLE4=Hey, Hey Daddy Blues - Maple Leaf Rag
TTITLE5=Wings Of An Angel
TTITLE6=Darkness
TTITLE7=Lovesick Blues
TTITLE8=People Get Ready
TTITLE9=Linin' Track
TTITLE10=Long Black Line
EXTD=YEAR: 2007
EXTT0=
EXTT1=
EXTT2=
EXTT3=
EXTT4=
EXTT5=
EXTT6=
EXTT7=
EXTT8=
EXTT9=
EXTT10=
PLAYORDER=
